HIERARCHY
ROOT hip
{
	OFFSET 0.000000 0.000000 0.000000 
	CHANNELS 6 Xposition Yposition Zposition Xrotation Zrotation Yrotation
	JOINT abdomen
	{
		OFFSET 0.000000 3.402643 0.000000 
		CHANNELS 3 Xrotation Zrotation Yrotation
		JOINT chest
		{
			OFFSET 0.000000 8.438565 -0.680529 
			CHANNELS 3 Xrotation Zrotation Yrotation
			JOINT neck
			{
				OFFSET 0.000000 10.207942 -0.272212 
				CHANNELS 3 Xrotation Zrotation Yrotation
				JOINT head
				{
					OFFSET 0.000000 3.130431 0.000000 
					CHANNELS 3 Xrotation Zrotation Yrotation
					End Site
					{
						OFFSET 0.000000 3.130435 0.000000 
					}
				}
			}
			JOINT lCollar
			{
				OFFSET 3.470700 6.669187 -0.816635 
				CHANNELS 3 Yrotation Zrotation Xrotation
				JOINT lShldr
				{
					OFFSET 3.198488 0.000000 0.000000 
					CHANNELS 3 Zrotation Yrotation Xrotation
					JOINT lForeArm
					{
						OFFSET 10.139888 0.000000 0.000000 
						CHANNELS 3 Yrotation Zrotation Xrotation
						JOINT lHand
						{
							OFFSET 8.370511 0.000000 0.000000 
							CHANNELS 3 Zrotation Yrotation Xrotation
							End Site
							{
								OFFSET 4.083176 0.000000 0.000000 
							}
						}
					}
				}
			}
			JOINT rCollar
			{
				OFFSET -3.470700 6.669187 -0.816635 
				CHANNELS 3 Yrotation Zrotation Xrotation
				JOINT rShldr
				{
					OFFSET -3.198488 0.000000 0.000000 
					CHANNELS 3 Zrotation Yrotation Xrotation
					JOINT rForeArm
					{
						OFFSET -10.139888 0.000000 0.000000 
						CHANNELS 3 Yrotation Zrotation Xrotation
						JOINT rHand
						{
							OFFSET -8.370511 0.000000 0.000000 
							CHANNELS 3 Zrotation Yrotation Xrotation
							End Site
							{
								OFFSET -4.083176 0.000000 0.000000 
							}
						}
					}
				}
			}
		}
	}
	JOINT lThigh
	{
		OFFSET 5.308129 -1.633274 1.361059 
		CHANNELS 3 Xrotation Zrotation Yrotation
		JOINT lShin
		{
			OFFSET -2.041588 -20.007561 0.000000 
			CHANNELS 3 Xrotation Zrotation Yrotation
			JOINT lFoot
			{
				OFFSET 0.000000 -19.190928 -1.224953 
				CHANNELS 3 Xrotation Yrotation Zrotation
				End Site
				{
					OFFSET 0.000000 -2.449906 4.627600 
				}
			}
		}
	}
	JOINT rThigh
	{
		OFFSET -5.308129 -1.633274 1.361059 
		CHANNELS 3 Xrotation Zrotation Yrotation
		JOINT rShin
		{
			OFFSET 2.041588 -20.007561 0.000000 
			CHANNELS 3 Xrotation Zrotation Yrotation
			JOINT rFoot
			{
				OFFSET 0.000000 -19.190928 -1.224953 
				CHANNELS 3 Xrotation Yrotation Zrotation
				End Site
				{
					OFFSET 0.000000 -2.449906 4.627600 
				}
			}
		}
	}
}
MOTION
Frames: 11
Frame Time: 0.033333
0.269310 40.066544 -124.579346 -9.640756 -4.602329 -10.449730 34.067032 3.862338 -5.673550 -20.839844 0.000000 0.000000 -22.402687 10.811673 10.956409 -2.520846 -1.255050 0.218350 -4.754607 -0.109226 -0.002657 -80.790764 -3.474080 0.185632 -24.670277 0.491839 14.932693 -6.009186 -7.666721 6.594271 4.754607 0.109226 -0.002676 88.184296 -4.441092 -15.076540 2.491543 0.017614 15.948442 -1.336593 7.257429 35.998413 13.298289 11.043619 4.311969 57.712147 0.067222 -7.293787 2.770753 -4.183337 2.772030 -14.127313 -6.746258 -5.282736 25.980902 6.057607 -1.915086 -19.785772 3.128463 -8.414067 
-0.498700 40.763592 -122.344032 -9.490043 -4.315353 -10.090468 34.210735 2.781417 -5.691282 -20.839844 0.000000 0.000000 -22.704912 10.860723 9.986032 -2.520846 -1.255050 0.218350 -4.754607 -0.109226 -0.002657 -80.801857 -3.438991 10.203704 -18.727907 5.400181 20.203455 -4.909879 -7.818414 -8.124498 4.754607 0.109226 -0.002676 89.021049 -1.580299 -13.762212 2.488399 -0.000426 15.313269 -1.634548 10.004664 36.175354 2.653984 9.975127 2.736153 67.214653 0.758181 -5.363251 -7.285032 -1.834982 5.375811 -10.318731 -6.237637 -6.137781 24.452635 5.576142 -2.798614 -21.470015 4.071286 -9.065593 
-1.199506 41.430676 -120.190948 -9.210696 -3.875319 -10.133933 34.304455 1.121066 -5.006977 -20.839844 0.000000 0.000000 -23.298307 10.500151 8.742345 -2.520846 -1.255050 0.218350 -4.754607 -0.109226 -0.002657 -80.415840 -3.398377 13.724494 -14.455482 6.634921 21.678396 -4.862594 -7.988123 -15.035013 4.754607 0.109226 -0.002676 89.711273 1.055886 -12.501792 2.478361 -0.010494 15.186161 -2.317419 13.352359 36.870087 -6.812594 8.764313 2.088900 70.827477 0.150192 -4.358145 -13.136747 -1.126740 6.243204 -5.897662 -6.072903 -11.858908 21.783829 4.149364 -5.439922 -22.610355 11.357440 -7.852718 
-1.879635 41.993195 -118.108963 -8.971688 -3.472719 -10.438829 34.521297 -0.653510 -3.939013 -20.839844 0.000000 0.000000 -23.989309 9.910498 7.951848 -2.520846 -1.255050 0.218350 -4.754607 -0.109226 -0.002657 -80.230293 -3.137959 13.879564 -12.204516 7.409225 20.286310 -5.549307 -7.732870 -18.256788 4.754607 0.109226 -0.002676 89.843468 3.689605 -11.284385 2.470096 -0.017290 15.420494 -3.077500 16.995888 37.759289 -14.679965 7.242143 1.681235 69.153450 -0.885268 -4.028111 -15.437233 -0.992469 4.944569 -1.416451 -6.149276 -17.352600 18.748095 3.828047 -7.903802 -23.280310 18.940845 -7.268196 
-2.515713 42.412029 -116.095512 -8.715324 -3.253098 -11.122939 34.877014 -2.138630 -2.771778 -20.839844 0.000000 0.000000 -25.030930 9.340393 7.774106 -2.520846 -1.255050 0.218350 -4.754607 -0.109226 -0.002657 -80.142288 -2.995843 13.673031 -11.324924 8.512614 18.085913 -6.481482 -7.116397 -21.531385 4.754607 0.109226 -0.002676 89.199615 6.673086 -9.814983 2.463072 -0.008898 15.889515 -3.440148 20.464140 38.172115 -20.641146 4.813297 0.497035 62.640804 -1.245800 -3.332620 -15.003186 0.398030 1.950958 2.527510 -5.895374 -20.117155 15.871007 4.045856 -9.355776 -23.374611 23.379211 -7.789970 
-3.106541 42.657238 -114.148544 -8.138399 -3.277280 -12.285713 35.156036 -3.116084 -1.498347 -20.839844 0.000000 0.000000 -26.407444 8.718273 8.120496 -2.520846 -1.255050 0.218350 -4.754607 -0.109226 -0.002657 -79.787186 -3.350927 13.155865 -11.065740 8.964949 15.592823 -6.983359 -6.689864 -24.102993 4.754607 0.109226 -0.002676 87.721008 10.313715 -8.094616 2.465221 0.003175 16.299952 -3.252131 23.747847 37.899101 -23.510786 -5.739563 -18.126694 50.791943 0.849331 -2.270615 -10.145890 21.176327 -7.417670 5.454132 -5.435618 -21.016342 13.754171 4.395362 -10.005397 -23.428568 25.487255 -8.420516 
-3.676216 42.675518 -112.263542 -7.259685 -3.497200 -13.890955 35.130169 -4.069861 -0.858986 -20.839844 0.000000 0.000000 -27.703239 8.646738 9.311396 -2.520846 -1.255050 0.218350 -4.754607 -0.109226 -0.002657 -78.614105 -3.754901 12.202967 -11.064973 8.983712 13.102321 -7.379237 -6.264475 -26.142254 4.754607 0.109226 -0.002676 88.574570 4.166511 -6.805543 24.035837 -1.566623 20.353281 0.647729 16.703537 35.006134 -12.510107 -13.326667 -40.855965 26.894827 20.250416 -8.638279 14.232745 48.723461 -32.484325 7.215231 -5.331242 -21.288773 13.385862 5.121973 -9.765218 -24.140860 26.558653 -8.348387 
-4.208717 42.392742 -110.363792 -6.190013 -4.378719 -15.883625 35.008408 -4.497345 -0.568291 -20.839844 0.000000 0.000000 -28.908728 9.528858 10.735214 -2.520846 -1.255050 0.218350 -4.754607 -0.109226 -0.002657 -77.038551 -4.466126 11.382370 -10.829662 9.564356 10.944485 -8.146016 -5.958468 -28.072313 4.754607 0.109226 -0.002676 87.628242 2.513427 -5.412630 38.452553 -0.126579 22.280228 2.655508 12.411388 32.847298 -11.819714 1.703266 -37.209896 -5.237679 10.882203 -21.084551 21.978279 47.326031 -29.812351 8.045627 -5.273570 -21.438745 15.330625 6.135082 -8.816482 -26.226093 27.521667 -7.453972 
-4.803268 41.305286 -108.094971 -5.056105 -5.895104 -18.864874 34.746410 -4.990618 0.579360 -20.839844 0.000000 0.000000 -30.022762 10.487707 12.072194 -2.520846 -1.255050 0.218350 -4.754607 -0.109226 -0.002657 -75.477837 -5.573397 11.144249 -10.380657 10.726812 9.157210 -9.269207 -6.000842 -30.518406 4.754607 0.109226 -0.002676 85.690689 3.509393 -3.805367 49.266266 2.015732 22.778685 3.010628 9.546858 31.048384 -26.333183 3.334541 -54.440929 10.485909 -1.210801 -34.052185 0.562323 73.668808 -16.635176 7.063903 -7.212652 -21.715986 24.134071 8.977863 -4.752836 -32.129875 28.248579 -7.093499 
-5.416340 40.536152 -105.924622 -4.100166 -6.682228 -22.257439 34.539284 -7.172006 1.087058 -20.839844 0.000000 0.000000 -30.840021 11.121982 13.627043 -2.520846 -1.255050 0.218350 -4.754607 -0.109226 -0.002657 -73.637573 -7.110510 10.814714 -9.778700 11.267740 7.040738 -10.465528 -5.836169 -33.107826 4.754607 0.109226 -0.002676 82.710213 5.962444 -2.264608 58.504448 4.165735 22.489885 2.562709 7.884877 29.524076 -19.688820 5.843532 72.004410 -1.507436 -4.285934 170.933151 -0.662264 101.909874 -8.168291 7.067491 -7.654852 -19.778900 28.220943 8.629133 -1.751667 -35.523560 26.589443 -5.673482 
-5.979891 40.007660 -103.930969 -3.100889 -7.235597 -25.791361 34.257679 -9.367904 1.150309 -20.839844 0.000000 0.000000 -31.749865 12.071548 15.536838 -2.520846 -1.255050 0.218350 -4.754607 -0.109226 -0.002657 -71.597687 -9.228116 10.262751 -8.802582 11.588823 4.288474 -11.830049 -5.549001 -35.917847 4.754607 0.109226 -0.002676 78.718246 9.721868 -0.776833 67.430038 6.405998 21.271009 1.495335 6.431585 27.572903 -19.913490 8.041863 71.902153 -1.474000 -4.314103 171.390778 -3.456030 104.715996 -3.835552 6.974473 -6.791362 -14.985745 29.877941 6.812722 0.317283 -36.774456 21.336475 -4.561177 
